<svg width="70" height="70" viewBox="0 0 70 70" fill="none" xmlns="http://www.w3.org/2000/svg">
<circle cx="35" cy="35" r="35" fill="#E7EDFF"/>
<path d="M27.4171 38.3332C27.2121 38.3343 27.0111 38.2458 26.8375 38.0782C26.6638 37.9105 26.5247 37.6704 26.4362 37.386C26.3477 37.1015 26.3135 36.7842 26.3376 36.471C26.3616 36.1577 26.443 35.8615 26.5721 35.6165L37.2971 18.6165C37.3776 18.4737 37.4872 18.3771 37.608 18.3428C37.7288 18.3084 37.8536 18.3382 37.962 18.4274C38.0703 18.5165 38.1557 18.6597 38.2042 18.8334C38.2527 19.0071 38.2614 19.2009 38.2288 19.3832L36.1488 29.4165C36.0874 29.6691 36.0668 29.9407 36.0887 30.2082C36.1107 30.4757 36.1744 30.731 36.2745 30.9522C36.3747 31.1735 36.5082 31.3541 36.6637 31.4785C36.8191 31.6029 36.9919 31.6674 37.1671 31.6665H44.7504C44.9554 31.6655 45.1564 31.7539 45.3301 31.9216C45.5037 32.0892 45.6429 32.3293 45.7313 32.6138C45.8198 32.8983 45.854 33.2155 45.83 33.5288C45.8059 33.842 45.7246 34.1383 45.5954 34.3832L34.8704 51.3832C34.79 51.526 34.6804 51.6226 34.5595 51.657C34.4387 51.6913 34.3139 51.6615 34.2056 51.5723C34.0972 51.4832 34.0118 51.34 33.9633 51.1663C33.9148 50.9927 33.9062 50.7988 33.9388 50.6165L36.0188 40.5832C36.0801 40.3307 36.1007 40.059 36.0788 39.7915C36.0569 39.524 35.9931 39.2687 35.893 39.0475C35.7929 38.8262 35.6594 38.6457 35.5039 38.5213C35.3484 38.3968 35.1757 38.3323 35.0004 38.3332H27.4171Z" fill="#396AFF" stroke="#396AFF" stroke-width="2" stroke-linecap="round" stroke-linejoin="round"/>
</svg>
