<svg width="70" height="70" viewBox="0 0 70 70" fill="none" xmlns="http://www.w3.org/2000/svg">
<rect width="70" height="70" rx="20" fill="#DCFAF8"/>
<path d="M49.977 25.2229C49.8494 23.7728 48.0891 23.1271 47.0587 24.1577L45.5869 25.6295C45.2578 25.9586 44.7175 25.964 44.3824 25.6415C44.0348 25.3068 44.0529 24.7303 44.3946 24.3886L45.8422 22.941C46.8716 21.9116 46.2287 20.1506 44.7774 20.0228C40.833 19.676 37.7043 23.3443 38.7504 27.2343L20.8322 45.1525C19.7227 46.2619 19.7225 48.0579 20.8322 49.1676C21.9392 50.2746 23.7403 50.2746 24.8474 49.1676L42.7609 31.254C46.6044 32.2991 50.3275 29.2033 49.977 25.2229V25.2229Z" fill="#16DBCC"/>
<path d="M21.875 26.8815C21.917 26.9644 21.9718 27.0401 22.0375 27.1058L24.581 29.6491C24.9242 29.9924 25.4807 29.9923 25.8238 29.6491L27.1173 28.3557L29.5875 30.8259L26.9466 33.4667C26.2623 34.1522 26.2629 35.2672 26.9472 35.9521L27.2244 36.2293L36.238 27.2162L35.9609 26.9391C35.273 26.2524 34.1631 26.2514 33.4743 26.9391L30.8304 29.5829L28.3602 27.1127L29.6537 25.8193C29.9969 25.4761 29.9969 24.9196 29.6537 24.5764L27.1103 22.0329C27.0439 21.9665 26.9672 21.9112 26.8833 21.8691L23.6324 20.2359C23.2938 20.0658 22.8844 20.1318 22.6164 20.3998L20.3951 22.6211C20.1264 22.8898 20.0609 23.3007 20.2326 23.6397L21.875 26.8815Z" fill="#16DBCC"/>
<path d="M41.3823 35.1189L35.126 41.3752L42.311 48.562C44.0394 50.2905 46.8378 50.291 48.5667 48.562C50.2917 46.8371 50.2917 44.0306 48.5667 42.3062L41.3823 35.1189ZM46.5307 46.5242C46.1897 46.8664 45.6318 46.868 45.288 46.5242L40.2996 41.5358C39.9562 41.1924 39.9562 40.6358 40.2996 40.2931C40.6429 39.9497 41.1995 39.9497 41.5423 40.2931L46.5307 45.2815C46.874 45.6249 46.874 46.1809 46.5307 46.5242V46.5242Z" fill="#16DBCC"/>
</svg>
