<svg width="70" height="70" viewBox="0 0 70 70" fill="none" xmlns="http://www.w3.org/2000/svg">
<circle cx="35" cy="35" r="35" fill="#FFF5D9"/>
<path d="M36.0371 22.725C35.7114 22.5764 35.3576 22.4995 34.9996 22.4995C34.6416 22.4995 34.2878 22.5764 33.9621 22.725L23.2496 27.6C23.0278 27.6978 22.8392 27.858 22.7068 28.061C22.5744 28.2641 22.5039 28.5013 22.5039 28.7437C22.5039 28.9861 22.5744 29.2233 22.7068 29.4264C22.8392 29.6295 23.0278 29.7897 23.2496 29.8875L33.9746 34.775C34.3003 34.9234 34.6541 35.0001 35.0121 35C35.37 35.0001 35.7239 34.9234 36.0496 34.775L46.7746 29.9C46.9968 29.8023 47.1857 29.6421 47.3184 29.4389C47.451 29.2357 47.5217 28.9983 47.5217 28.7556C47.5217 28.5129 47.451 28.2755 47.3184 28.0723C47.1857 27.869 46.9968 27.7088 46.7746 27.6112L36.0371 22.725Z" stroke="#FFBB38" stroke-width="2" stroke-linecap="round" stroke-linejoin="round"/>
<path d="M40 41.25H47.5" stroke="#FFBB38" stroke-width="2" stroke-linecap="round" stroke-linejoin="round"/>
<path d="M43.75 37.5V45" stroke="#FFBB38" stroke-width="2" stroke-linecap="round" stroke-linejoin="round"/>
<path d="M22.5 35C22.4994 35.2391 22.5674 35.4733 22.6959 35.6749C22.8244 35.8766 23.008 36.0371 23.225 36.1375L33.975 41.025C34.299 41.1717 34.6506 41.2475 35.0063 41.2475" stroke="#FFBB38" stroke-width="2" stroke-linecap="round" stroke-linejoin="round"/>
<path d="M22.5 41.25C22.4994 41.4891 22.5674 41.7233 22.6959 41.9249C22.8244 42.1266 23.008 42.2871 23.225 42.3875L33.975 47.275C34.299 47.4217 34.6506 47.4976 35.0063 47.4976C35.3619 47.4976 35.7135 47.4217 36.0375 47.275L38.6825 46.0725" stroke="#FFBB38" stroke-width="2" stroke-linecap="round" stroke-linejoin="round"/>
</svg>
