<svg width="60" height="60" viewBox="0 0 60 60" fill="none" xmlns="http://www.w3.org/2000/svg">
<rect width="60" height="60" rx="20" fill="#E7EDFF"/>
<g clip-path="url(#clip0_681_2)">
<path d="M38.2994 31.265C37.8337 31.265 37.3736 31.3332 36.9314 31.4675L31.2315 33.0454V24.9836C31.2315 24.5798 31.5601 24.2512 31.9639 24.2512C32.3678 24.2512 32.6963 24.5798 32.6963 24.9836V30.6813H33.4288C36.2558 30.6813 38.5557 28.3813 38.5557 25.5543C38.5557 23.2667 37.0191 21.237 34.8161 20.6175L25.3559 18V30.556L21.5599 31.6067C21.1117 31.7189 20.682 31.8971 20.2826 32.1366C18.0601 33.4691 17.3361 36.3615 18.6687 38.584C19.1965 39.4642 19.9767 40.1334 20.925 40.5193C21.4904 40.7494 22.0993 40.8661 22.7074 40.866C23.085 40.866 23.4623 40.821 23.8286 40.7303L25.3559 40.3077V41.5762L30.4991 43L39.6583 40.4646L39.6775 40.459C40.6192 40.1705 41.465 39.576 42.0592 38.7849C42.6741 37.9663 42.9991 36.9911 42.9991 35.9648C42.9991 33.3733 40.8908 31.265 38.2994 31.265ZM25.3558 34.6719L21.504 35.7381L21.8949 37.1499L25.3558 36.1918V38.7878L23.4669 39.3107C23.2075 39.3742 22.9467 39.405 22.6894 39.405C21.5732 39.4049 20.5218 38.8262 19.925 37.8307C19.0078 36.3009 19.5061 34.3101 21.0359 33.3928C21.3134 33.2264 21.6117 33.103 21.9223 33.026L25.3558 32.0758V34.6719ZM29.7666 24.9836V41.2773L26.8207 40.4618V19.9252L34.4226 22.0286C35.9936 22.4703 37.0909 23.9202 37.0909 25.5544C37.0909 27.3229 35.8306 28.8026 34.1612 29.1429V24.9836C34.1612 23.7721 33.1755 22.7864 31.9639 22.7864C30.7523 22.7864 29.7666 23.7721 29.7666 24.9836ZM39.2573 39.0556L31.2315 41.2773V38.6813L39.4946 36.3938L39.1038 34.9821L31.2315 37.1613V34.5653L37.3314 32.8767L37.3505 32.8711C37.6565 32.7774 37.9758 32.7299 38.2994 32.7299C40.0831 32.7299 41.5343 34.1811 41.5343 35.9647C41.5342 37.3931 40.6195 38.6341 39.2573 39.0556Z" fill="#396AFF"/>
</g>
<defs>
<clipPath id="clip0_681_2">
<rect width="25" height="25" fill="white" transform="translate(18 18)"/>
</clipPath>
</defs>
</svg>
